<svg width="132" height="32" viewBox="0 0 132 32" fill="none" xmlns="http://www.w3.org/2000/svg">
<path d="M65.0057 15.4694C64.1986 15.5195 63.4787 15.7741 62.8466 16.2369C62.1377 16.755 61.6772 17.4134 61.464 18.2086L60.5977 21.4283H57.6529L59.8492 13.2603H61.5117C62.4167 13.2603 62.5912 13.7314 62.3805 14.5156C62.3209 14.7394 62.2963 14.8313 62.2963 14.8313H62.3259C63.286 13.8619 64.3766 13.3464 65.5957 13.2749L65.0062 15.4694M97.924 13.2749C96.7049 13.3464 95.6133 13.8613 94.6541 14.8313H94.623C94.623 14.8313 94.6481 14.7389 94.7083 14.5156C94.919 13.7314 94.7444 13.2603 93.8385 13.2603H92.176L89.9807 21.4283H92.9259L93.7918 18.2086C94.006 17.4134 94.466 16.755 95.1739 16.2369C95.807 15.7741 96.5273 15.5195 97.333 15.4694L97.9234 13.2749H97.924ZM37.7141 18.1298C37.6403 18.4022 37.4537 18.6536 37.1562 18.8837C36.8577 19.1143 36.5678 19.2297 36.2854 19.2297C35.9834 19.2297 35.7927 19.141 35.7155 18.9625C35.6367 18.7841 35.6623 18.4538 35.7927 17.9733L37.0589 13.2598H34.2652L32.9559 18.1293C32.6122 19.407 32.5651 20.3024 32.8159 20.8158C33.0647 21.3292 33.6326 21.5859 34.5195 21.5859C35.4065 21.5859 36.328 21.1883 37.1658 20.3916H37.1964L36.9485 21.4278H38.4896C39.2436 21.4278 39.823 20.9577 40.0337 20.1725C40.2023 19.5453 41.8919 13.2592 41.8919 13.2592H39.0224L37.7141 18.1288V18.1298ZM57.7708 18.2086C57.8892 17.9154 57.9865 17.6273 58.0628 17.3446C58.8223 14.5172 57.9188 13.1027 55.3513 13.1027C54.052 13.1027 52.9624 13.4695 52.08 14.2031C51.1986 14.9356 50.5741 15.9838 50.2093 17.3446C49.8396 18.7162 49.943 19.7665 50.5174 20.4944C51.0928 21.2212 52.0946 21.5859 53.5238 21.5859C54.4308 21.5859 55.3975 21.4544 56.4249 21.193L56.9727 19.1509C55.9363 19.4133 55.1206 19.5437 54.5266 19.5437C53.8424 19.5437 53.3708 19.4441 53.1114 19.2448C52.8521 19.0465 52.7538 18.7011 52.816 18.2086H57.7703H57.7708ZM53.8975 15.3963C54.1529 15.1772 54.4865 15.0671 54.8998 15.0671C55.2821 15.0671 55.5359 15.1819 55.6604 15.412C55.7848 15.6426 55.7752 16.025 55.6308 16.5593H53.2298C53.4189 16.0047 53.6417 15.616 53.898 15.3963M49.6701 14.1572C49.3219 13.4293 48.6843 13.0657 47.7572 13.0657C46.8302 13.0657 45.9392 13.4632 45.111 14.26H45.0804L45.3498 13.2603H42.5706L39.4558 24.8474H41.1183C41.8723 24.8474 42.4517 24.3762 42.6629 23.592C42.7648 23.2132 43.4686 20.5899 43.4686 20.5899H43.4992C44.0124 21.229 44.6716 21.5488 45.4772 21.5488C46.3631 21.5488 47.1874 21.1774 47.9514 20.4328C48.7154 19.6898 49.2768 18.6474 49.6375 17.307C50.0072 15.9353 50.0167 14.885 49.6691 14.1572M44.508 16.443C44.5843 16.1597 44.7894 15.893 45.124 15.6416C45.4582 15.3906 45.7857 15.2649 46.1083 15.2649C46.9636 15.2649 47.2094 15.9457 46.8432 17.307C46.6596 17.9879 46.4068 18.4987 46.0842 18.8378C45.7607 19.179 45.403 19.3491 45.0097 19.3491C44.6876 19.3491 44.4272 19.2234 44.2276 18.9719C44.0279 18.7199 43.9667 18.4528 44.0425 18.171L44.507 16.443H44.508ZM81.6266 14.1572C81.2785 13.4293 80.6409 13.0657 79.7148 13.0657C78.7887 13.0657 77.8958 13.4632 77.0676 14.26H77.038L77.3053 13.2603H74.5272L71.4124 24.8474H73.0749C73.8289 24.8474 74.4083 24.3762 74.619 23.592C74.7213 23.2132 75.4256 20.5899 75.4256 20.5899H75.4562C75.9684 21.229 76.6276 21.5488 77.4333 21.5488C78.3202 21.5488 79.1444 21.1774 79.9084 20.4328C80.6725 19.6898 81.2348 18.6474 81.5945 17.307C81.9637 15.9353 81.9733 14.885 81.6261 14.1572M76.4651 16.443C76.5403 16.1597 76.7465 15.893 77.0801 15.6416C77.4152 15.3906 77.7428 15.2649 78.0649 15.2649C78.9212 15.2649 79.1665 15.9457 78.8008 17.307C78.6167 17.9879 78.3654 18.4987 78.0418 18.8378C77.7177 19.179 77.3605 19.3491 76.9682 19.3491C76.6457 19.3491 76.3848 19.2234 76.1861 18.9719C75.9855 18.7199 75.9243 18.4528 76.0005 18.171L76.4651 16.443ZM82.1684 17.3446C81.8107 18.675 81.8895 19.7138 82.4022 20.4626C82.9164 21.2118 83.8174 21.5864 85.1061 21.5864C86.3949 21.5864 87.498 21.2123 88.4135 20.4626C89.3301 19.7138 89.9662 18.675 90.3238 17.3446C90.6815 16.0151 90.6038 14.9748 90.0901 14.2266C89.5759 13.4778 88.6744 13.1027 87.3861 13.1027C86.0979 13.1027 84.9947 13.4778 84.0787 14.2266C83.1627 14.9748 82.5251 16.0151 82.1684 17.3446ZM85.0379 17.3446C85.2536 16.5379 85.5029 15.9697 85.7828 15.64C86.0623 15.3097 86.4139 15.1454 86.8373 15.1454C87.2607 15.1454 87.5236 15.3102 87.6259 15.64C87.7283 15.9703 87.6711 16.5379 87.4544 17.3446C87.2382 18.1512 86.9893 18.7194 86.7089 19.0491C86.429 19.3794 86.0783 19.5437 85.6549 19.5437C85.2315 19.5437 84.9702 19.3794 84.8663 19.0491C84.764 18.7189 84.8212 18.1512 85.0379 17.3446ZM101.352 21.3501L101.943 19.1503C101.468 19.3074 100.994 19.3862 100.521 19.3862C100.168 19.3862 99.9627 19.3074 99.904 19.1503C99.8458 18.9933 99.9005 18.6004 100.07 17.9733L100.745 15.4589H102.935L103.526 13.2598H101.336C101.336 13.2598 101.65 12.0947 101.717 11.8453C101.928 11.06 101.753 10.5889 100.848 10.5889H99.1836L97.1148 18.2868C96.7832 19.5213 96.7736 20.3806 97.0872 20.8622C97.4007 21.3438 98.0955 21.5854 99.1736 21.5854C99.9185 21.5854 100.645 21.5066 101.352 21.3495M30.88 9.77444C29.53 9.77444 28.4214 10.0677 27.554 10.6536C26.6872 11.2416 26.1123 12.0775 25.8373 13.1032C25.581 14.0565 25.6603 14.8548 26.0771 15.4991C26.492 16.1435 27.3122 16.6804 28.5363 17.1092C28.8744 17.235 29.0931 17.3774 29.1919 17.5334C29.2908 17.6905 29.3008 17.9164 29.222 18.2096C29.0535 18.8378 28.5152 19.1519 27.6092 19.1519C26.5116 19.1519 25.5715 18.8117 24.7879 18.1308L24.0906 20.7224C24.8521 21.2989 25.8574 21.5875 27.105 21.5875C29.9755 21.5875 31.7198 20.4354 32.3393 18.1308C32.6062 17.1359 32.544 16.3407 32.1502 15.7433C31.7564 15.1464 30.9131 14.633 29.6188 14.2041C29.0003 13.9944 28.7615 13.6276 28.9025 13.1037C29.063 12.5074 29.5561 12.2011 30.3854 12.187C30.8153 12.1797 31.1825 12.2423 31.489 12.2862C31.9947 12.3576 32.7778 12.2721 33.0502 11.2573C33.2935 10.351 33.3552 10.1037 33.3552 10.1037C32.6599 9.88662 31.8357 9.77549 30.8795 9.77549M71.2223 9.60696C69.8733 9.60696 68.7646 9.89914 67.8973 10.4861C67.0299 11.0726 66.4555 11.9095 66.1796 12.9352C65.9233 13.889 66.003 14.6867 66.4194 15.3311C66.8353 15.975 67.6545 16.5108 68.8785 16.9407C69.2166 17.0665 69.4354 17.2079 69.5352 17.3649C69.633 17.522 69.643 17.7479 69.5643 18.0411C69.3957 18.6693 68.8584 18.9834 67.952 18.9834C66.8543 18.9834 65.9137 18.6427 65.1301 17.9623L64.4338 20.5539C65.1948 21.1299 66.2002 21.4179 67.4488 21.4179C70.3183 21.4179 72.0635 20.2659 72.6821 17.9623C72.9495 16.9673 72.8867 16.1722 72.4929 15.5753C72.1002 14.9784 71.2559 14.4645 69.9616 14.0361C69.3435 13.8264 69.1043 13.4596 69.2452 12.9357C69.4053 12.3399 69.8994 12.0331 70.7291 12.019C71.1585 12.0112 71.5258 12.0743 71.8318 12.1176C72.3384 12.1891 73.12 12.1035 73.3929 11.0887C73.6367 10.1825 73.6979 9.93514 73.6979 9.93514C73.0031 9.71705 72.1794 9.60696 71.2223 9.60696Z" fill="white"></path>
<path d="M110.083 15.1229C110.649 15.3384 111.058 15.6916 111.31 16.1821C111.56 16.6725 111.589 17.2632 111.394 17.9529C111.168 18.7721 110.863 19.4138 110.479 19.8771C110.095 20.341 109.652 20.6853 109.153 20.9118C108.652 21.1382 108.105 21.2786 107.51 21.3323C106.915 21.3866 106.299 21.4132 105.661 21.4132H102.04L105.266 9.62522H108.73C109.232 9.62522 109.744 9.65496 110.267 9.71444C110.789 9.77392 111.248 9.90332 111.645 10.1026C112.041 10.3025 112.329 10.5988 112.51 10.9922C112.691 11.3856 112.69 11.9168 112.508 12.5851C112.343 13.1778 112.043 13.6954 111.608 14.1373C111.173 14.5793 110.665 14.9085 110.082 15.124L110.083 15.1229ZM107.056 16.4325H106.397L105.648 19.1655H106.526C106.787 19.1655 107.035 19.1441 107.268 19.1008C107.502 19.058 107.712 18.9823 107.899 18.8743C108.086 18.7669 108.25 18.6155 108.392 18.4215C108.534 18.2274 108.644 17.9795 108.722 17.6774C108.797 17.3973 108.793 17.1734 108.708 17.0065C108.623 16.8395 108.492 16.7127 108.317 16.6266C108.142 16.5405 107.94 16.4868 107.712 16.4649C107.484 16.4435 107.265 16.4325 107.056 16.4325H107.056ZM108.461 11.8724H107.646L107.031 14.1363H107.486C107.684 14.1363 107.899 14.1259 108.131 14.1039C108.363 14.0826 108.584 14.034 108.794 13.9584C109.004 13.8832 109.194 13.7674 109.364 13.6109C109.534 13.4549 109.657 13.242 109.732 12.9723C109.795 12.7244 109.801 12.5277 109.751 12.3822C109.7 12.2366 109.613 12.126 109.489 12.0509C109.364 11.9757 109.212 11.9272 109.031 11.9053C108.85 11.8839 108.659 11.8729 108.461 11.8729V11.8724Z" fill="#F1C72F"></path>
<path d="M114.402 9.62522L111.176 21.4132C111.176 21.4132 117.341 21.4137 117.682 21.4132C118.399 21.4132 118.941 20.9921 119.127 20.3008L119.545 18.7773H115.376H114.927L115.473 16.7722L119.584 16.7769L120.314 14.2172H116.176L116.745 12.1312H120.084C120.356 12.1312 120.631 12.0529 120.911 11.8969C121.191 11.7409 121.37 11.5061 121.449 11.1936L121.881 9.62522H114.402Z" fill="#F1C72F"></path>
<path d="M122.625 9.60905L121.925 12.1317H125.045L122.502 21.4132H122.814C122.895 21.4132 124.19 21.4137 124.525 21.4132C125.242 21.4132 125.784 20.9921 125.97 20.3008L126.375 18.7909L128.196 12.1317H131.316L132 9.60905H122.625Z" fill="#F1C72F"></path>
<path d="M25.0793 5.15119C25.0793 3.96316 23.9751 3 22.6126 3C21.2501 3 20.146 3.96316 20.146 5.15119C20.146 6.33922 21.2501 7.30238 22.6126 7.30238C23.9751 7.30238 25.0793 6.33922 25.0793 5.15119Z" fill="#F1C72F"></path>
<path d="M17.6955 14.9028C15.4942 12.6764 8.13089 14.1765 5.36826 13.7111C4.02834 13.4851 3.14692 12.965 3.14692 11.8635C3.14692 7.25385 15.0056 4.42752 16.7529 4.4703C17.3007 4.48387 17.9167 4.77761 18.1896 5.0291C18.8799 5.66564 19.37 6.55001 19.2862 7.23559C19.2862 7.93422 18.4349 8.33284 17.5841 8.33284C12.5119 8.33284 8.64258 9.71601 7.66083 10.4819C7.62973 10.5132 7.61117 10.5545 7.61117 10.5988C7.61117 10.6969 7.70247 10.7767 7.81484 10.7767C8.84926 10.7767 15.432 9.47548 19.2998 11.3444C20.9788 12.1562 21.8622 13.8546 21.8547 15.6802C21.8547 16.9605 20.9427 18.147 19.984 18.9818C18.308 20.4427 14.7773 21.9083 10.887 23.8618C7.06938 25.7777 3.24575 27.7603 1.16036 28.7313C0.661715 28.9635 0.141999 29.1242 0.0281226 28.8706C-0.0752188 28.6431 0.134474 28.329 0.256377 28.1735C1.16889 27.0095 5.68932 24.3846 9.92882 21.9167C13.5097 19.8333 17.1793 17.9331 17.9694 16.5671C18.0737 16.3845 18.1324 16.1748 18.1324 15.9567C18.1324 15.6087 17.9383 15.1464 17.696 14.9012" fill="#DB1B13"></path>
</svg>