<svg width="88" height="32" viewBox="0 0 88 32" fill="none" xmlns="http://www.w3.org/2000/svg">
<path d="M37.7883 0L41.4799 2.31566L45.1719 0L48.8637 2.31566L52.5553 0V6.21986H37.7883V0Z" fill="#FFC400"></path>
<path d="M41.9338 25.3104H37.7883V8.29311H41.9338V25.3104Z" fill="white"></path>
<path d="M42.3483 16.8017L47.6825 8.29311H52.5552L47.221 16.8017L52.5552 25.3104H47.6825L42.3483 16.8017Z" fill="white"></path>
<path d="M53.2159 11.801H57.3616V25.3104H53.2159V11.801Z" fill="white"></path>
<path d="M68.106 17.9844C68.106 16.1415 67.0876 15.123 65.5119 15.123C63.9363 15.123 62.918 16.1415 62.918 17.9844V25.3102H58.7723V11.801H62.918V13.5954C63.7424 12.4556 65.1968 11.6556 67.0149 11.6556C70.1424 11.6556 72.2272 13.7893 72.2272 17.4266V25.3102H68.106V17.9844Z" fill="white"></path>
<path d="M80.4673 15.22C78.9157 15.22 77.5098 16.384 77.5098 18.542C77.5098 20.7002 78.9157 21.9126 80.4673 21.9126C82.043 21.9126 83.4249 20.7244 83.4249 18.5663C83.4249 16.4083 82.043 15.22 80.4673 15.22ZM79.2553 11.607C81.243 11.607 82.6976 12.5042 83.4249 13.7167V11.801H87.5705V25.3074C87.5705 28.9204 85.4854 32 80.8068 32C76.7823 32 74.1642 29.9631 73.8007 26.7381H77.8976C78.1642 27.7564 79.1826 28.4113 80.6129 28.4113C82.1885 28.4113 83.4249 27.5868 83.4249 25.3074V23.3917C82.6734 24.5801 81.243 25.5257 79.2553 25.5257C75.9339 25.5257 73.2915 22.81 73.2915 18.542C73.2915 14.2744 75.9339 11.607 79.2553 11.607Z" fill="white"></path>
<path d="M8.80932 21.4925C9.1886 21.1775 9.37878 20.7212 9.37878 20.1229C9.37878 19.5253 9.18068 19.056 8.78502 18.7172C8.38881 18.3776 7.84374 18.2077 7.14913 18.2077H4.14409V21.9651H7.1975C7.8921 21.9651 8.42948 21.8077 8.80932 21.4925ZM4.14409 15.1777H6.85822C7.53689 15.1777 8.0579 15.0284 8.42146 14.7296C8.78502 14.4309 8.96685 13.99 8.96685 13.408C8.96685 12.8268 8.78502 12.3819 8.42146 12.075C8.0579 11.7681 7.53689 11.6146 6.85822 11.6146H4.14409V15.1777ZM12.6747 18.0503C13.2722 18.8184 13.5715 19.6951 13.5715 20.6803C13.5715 22.1024 13.0746 23.2296 12.0809 24.0622C11.0872 24.8949 9.70169 25.3104 7.92462 25.3104H0V8.29311H7.658C9.38669 8.29311 10.7396 8.68985 11.7175 9.48157C12.6947 10.2734 13.1836 11.3477 13.1836 12.7052C13.1836 13.7076 12.9208 14.5394 12.3961 15.2022C11.8707 15.865 11.1721 16.3254 10.2998 16.5834C11.285 16.794 12.0768 17.2829 12.6747 18.0503Z" fill="white"></path>
<path d="M23.6118 17.238C23.6118 16.527 23.3695 15.9622 22.8848 15.5418C22.4003 15.1214 21.7944 14.9108 21.0672 14.9108C20.3724 14.9108 19.7865 15.1133 19.3103 15.5173C18.8335 15.9214 18.5385 16.4952 18.4256 17.238H23.6118ZM27.7802 19.5408H18.4013C18.4658 20.3815 18.7366 21.024 19.2131 21.4681C19.6896 21.913 20.2755 22.1349 20.9702 22.1349C22.0039 22.1349 22.7233 21.6984 23.1271 20.8257H27.5379C27.3114 21.7147 26.9036 22.5145 26.314 23.2255C25.7242 23.9374 24.9849 24.4947 24.0966 24.8981C23.2078 25.3023 22.2141 25.5047 21.1157 25.5047C19.7907 25.5047 18.6111 25.2214 17.5775 24.6558C16.5434 24.0899 15.7355 23.2826 15.1539 22.2321C14.5722 21.1815 14.2815 19.953 14.2815 18.5474C14.2815 17.1409 14.5682 15.9132 15.1419 14.8626C15.7151 13.8121 16.5189 13.0048 17.5533 12.4383C18.587 11.8733 19.7745 11.5901 21.1157 11.5901C22.4243 11.5901 23.5876 11.8652 24.6055 12.4145C25.6234 12.9639 26.4189 13.7476 26.9926 14.7655C27.5659 15.7834 27.8529 16.9719 27.8529 18.3294C27.8529 18.7171 27.8287 19.1213 27.7802 19.5408Z" fill="white"></path>
<path d="M36.4609 21.7955V25.3104H34.3524C32.85 25.3104 31.6783 24.9431 30.8386 24.2076C29.9983 23.4721 29.5783 22.2722 29.5783 20.6077V15.2259H27.9303V11.8009H29.5783V8.29305H33.7225V11.8009H36.4369V15.2259H33.7225V20.6559C33.7225 21.0598 33.8194 21.3513 34.0131 21.5285C34.2072 21.7071 34.5302 21.7955 34.9827 21.7955H36.4609Z" fill="white"></path>
</svg>